<?xml version="1.0" encoding="UTF-8"?>
<svg xmlns="http://www.w3.org/2000/svg" viewBox="219 151 421 66">
<path fill="#ffffff" d="
  M 223.41 212.46
  L 223.41 156.57
  A 0.76 0.76 0.0 0 1 224.17 155.81
  L 232.19 155.81
  A 0.76 0.76 0.0 0 1 232.95 156.57
  L 232.95 179.12
  A 0.76 0.76 0.0 0 0 233.71 179.88
  L 282.36 179.88
  A 0.76 0.76 0.0 0 0 283.12 179.12
  L 283.12 156.56
  A 0.76 0.76 0.0 0 1 283.88 155.80
  L 292.69 155.80
  A 0.76 0.76 0.0 0 1 293.45 156.56
  L 293.45 212.46
  A 0.76 0.76 0.0 0 1 292.69 213.22
  L 283.88 213.22
  A 0.76 0.76 0.0 0 1 283.12 212.46
  L 283.12 188.51
  A 0.76 0.76 0.0 0 0 282.36 187.75
  L 233.71 187.75
  A 0.76 0.76 0.0 0 0 232.95 188.51
  L 232.95 212.46
  A 0.76 0.76 0.0 0 1 232.19 213.22
  L 224.17 213.22
  A 0.76 0.76 0.0 0 1 223.41 212.46
  Z"
/>
<path fill="#ffffff" d="
  M 348.04 168.30
  A 0.26 0.26 0.0 0 0 347.62 168.51
  L 347.62 212.65
  A 0.53 0.53 0.0 0 1 347.09 213.18
  L 338.48 213.18
  A 0.47 0.47 0.0 0 1 338.01 212.71
  L 338.01 156.45
  A 0.65 0.65 0.0 0 1 338.66 155.80
  L 347.21 155.80
  A 1.87 1.86 -26.3 0 1 348.34 156.18
  L 363.07 167.64
  A 1.39 1.03 79.9 0 1 363.24 167.80
  C 364.45 169.10 365.55 170.38 367.24 171.83
  Q 373.39 177.08 401.02 200.23
  A 0.50 0.50 0.0 0 0 401.84 199.85
  L 401.84 156.29
  A 0.48 0.48 0.0 0 1 402.32 155.81
  L 410.70 155.81
  A 0.49 0.48 -0.0 0 1 411.19 156.29
  L 411.19 212.54
  A 0.66 0.65 -0.0 0 1 410.53 213.19
  L 402.71 213.19
  A 2.35 2.30 64.9 0 1 401.19 212.62
  Q 399.39 211.05 393.82 207.31
  Q 391.12 205.50 383.89 198.24
  Q 380.34 194.66 371.37 187.95
  Q 366.37 184.21 362.94 180.95
  Q 356.14 174.47 348.04 168.30
  Z"
/>
<path fill="#ffffff" d="
  M 447.07 212.67
  C 447.95 210.56 450.59 208.08 451.78 205.40
  Q 454.60 199.06 460.64 190.37
  Q 466.70 181.64 472.42 172.18
  Q 474.07 169.44 475.03 166.96
  A 1.76 1.31 81.7 0 1 475.17 166.70
  L 482.02 156.37
  A 1.31 1.31 0.0 0 1 483.10 155.80
  L 492.68 155.80
  A 1.47 1.47 0.0 0 1 493.93 156.50
  Q 495.90 159.72 497.52 163.92
  Q 497.73 164.46 498.89 165.79
  A 7.26 6.96 10.1 0 1 499.62 166.79
  C 504.32 174.59 508.41 181.88 513.54 189.00
  C 517.20 194.08 519.37 200.02 522.38 204.82
  Q 524.12 207.60 527.62 212.30
  A 0.56 0.56 0.0 0 1 527.17 213.20
  L 517.54 213.20
  A 1.38 1.38 0.0 0 1 516.40 212.60
  C 511.91 206.21 509.58 202.20 503.74 192.37
  Q 501.53 188.67 499.58 186.23
  C 497.18 183.22 496.27 179.33 494.17 175.95
  Q 490.49 170.00 488.10 165.69
  A 0.45 0.45 0.0 0 0 487.33 165.67
  Q 479.04 178.86 474.96 186.16
  C 471.47 192.41 467.21 198.95 463.95 204.56
  C 462.18 207.62 460.35 209.74 458.37 212.70
  A 1.11 1.11 0.0 0 1 457.45 213.19
  L 447.42 213.19
  A 0.38 0.38 0.0 0 1 447.07 212.67
  Z"
/>
<path fill="#ffffff" d="
  M 636.32 213.05
  A 0.26 0.26 0.0 0 1 636.32 213.57
  C 629.79 214.39 621.08 215.15 615.30 211.18
  Q 610.73 208.04 607.94 204.41
  C 604.32 199.70 601.71 197.19 598.49 193.61
  A 2.79 2.78 -20.8 0 0 596.41 192.68
  L 572.69 192.68
  A 0.71 0.71 0.0 0 0 571.98 193.39
  L 571.98 212.51
  A 0.67 0.66 -90.0 0 1 571.32 213.18
  L 563.03 213.18
  A 0.62 0.61 -90.0 0 1 562.42 212.56
  L 562.42 156.72
  A 0.94 0.93 -89.7 0 1 563.36 155.78
  Q 567.42 155.83 599.33 155.77
  C 609.20 155.75 617.51 156.84 623.35 163.85
  C 627.77 169.16 627.33 178.04 624.35 183.81
  C 622.11 188.13 614.40 191.13 610.23 191.90
  A 0.42 0.41 -25.2 0 0 609.98 192.58
  Q 615.75 199.31 623.76 207.08
  Q 629.12 212.29 636.32 213.05
  Z
  M 571.92 165.43
  L 572.05 184.09
  A 0.82 0.82 0.0 0 0 572.87 184.91
  L 605.13 184.68
  A 10.94 9.26 -0.4 0 0 616.01 175.35
  L 615.99 173.57
  A 10.94 9.26 -0.4 0 0 604.99 164.38
  L 572.73 164.61
  A 0.82 0.82 0.0 0 0 571.92 165.43
  Z"
/>
</svg>
